<svg width="20" height="20" viewBox="0 0 20 20" fill="none" xmlns="http://www.w3.org/2000/svg">
<rect width="20" height="20" rx="5" fill="#272732"/>
<path d="M6.52324 13.2812C6.55059 13.2812 6.57793 13.2785 6.60527 13.2744L8.90488 12.8711C8.93223 12.8656 8.9582 12.8533 8.97734 12.8328L14.7729 7.0373C14.7855 7.02466 14.7956 7.00963 14.8024 6.99309C14.8093 6.97655 14.8128 6.95882 14.8128 6.94092C14.8128 6.92301 14.8093 6.90528 14.8024 6.88874C14.7956 6.8722 14.7855 6.85718 14.7729 6.84453L12.5006 4.5709C12.4746 4.54492 12.4404 4.53125 12.4035 4.53125C12.3666 4.53125 12.3324 4.54492 12.3064 4.5709L6.51094 10.3664C6.49043 10.3869 6.47812 10.4115 6.47266 10.4389L6.06934 12.7385C6.05604 12.8117 6.06079 12.8871 6.08318 12.9581C6.10557 13.0291 6.14493 13.0935 6.19785 13.1459C6.28809 13.2334 6.40156 13.2812 6.52324 13.2812ZM7.44473 10.8969L12.4035 5.93945L13.4057 6.9416L8.44687 11.899L7.23145 12.1137L7.44473 10.8969ZM15.0312 14.4297H4.96875C4.72676 14.4297 4.53125 14.6252 4.53125 14.8672V15.3594C4.53125 15.4195 4.58047 15.4688 4.64062 15.4688H15.3594C15.4195 15.4688 15.4688 15.4195 15.4688 15.3594V14.8672C15.4688 14.6252 15.2732 14.4297 15.0312 14.4297Z" fill="#6F6F73"/>
</svg>
